<svg width="40" height="40" xmlns="http://www.w3.org/2000/svg"><g clip-path="url(#clip0)"><path d="M38.95 30.858l-8.096-5.4a2.363 2.363 0 00-3.164.515l-2.358 3.032c-.303.4-.854.515-1.293.272l-.448-.248c-1.488-.81-3.338-1.82-7.066-5.549-3.728-3.73-4.74-5.581-5.55-7.065l-.246-.449a1.009 1.009 0 01.267-1.297l3.03-2.358a2.364 2.364 0 00.515-3.164l-5.4-8.096A2.35 2.35 0 005.973.338L2.587 2.37A4.776 4.776 0 00.41 5.198C-.81 9.64.107 17.306 11.4 28.6c8.984 8.983 15.671 11.398 20.268 11.398a11.808 11.808 0 003.133-.409 4.77 4.77 0 002.826-2.178l2.036-3.383a2.351 2.351 0 00-.713-3.17zm-.436 2.486l-2.03 3.386a3.445 3.445 0 01-2.034 1.575c-4.1 1.126-11.265.194-22.106-10.648C1.502 16.815.569 9.652 1.695 5.55a3.45 3.45 0 011.578-2.035l3.386-2.032a1.02 1.02 0 011.375.31l2.933 4.403 2.461 3.692a1.026 1.026 0 01-.222 1.373l-3.031 2.358a2.333 2.333 0 00-.618 2.994l.24.438c.852 1.562 1.912 3.506 5.778 7.372 3.867 3.866 5.81 4.925 7.372 5.777l.438.241a2.333 2.333 0 002.994-.618l2.358-3.03c.33-.421.927-.518 1.373-.223l8.095 5.399c.455.302.591.908.31 1.375zM22.665 6.67c6.256.007 11.325 5.076 11.332 11.332a.667.667 0 001.333 0c-.008-6.992-5.673-12.657-12.665-12.665a.666.666 0 100 1.333z"/><path d="M22.665 10.67a7.34 7.34 0 017.333 7.332.667.667 0 001.333 0 8.675 8.675 0 00-8.666-8.666.667.667 0 000 1.333z"/><path d="M22.665 14.669a3.337 3.337 0 013.333 3.333.667.667 0 001.333 0 4.671 4.671 0 00-4.666-4.666.667.667 0 000 1.333z"/></g><defs><clipPath id="clip0"><path d="M0 0h40v40H0z"/></clipPath></defs></svg>