<svg width="90" height="90" fill="none" xmlns="http://www.w3.org/2000/svg"><g clip-path="url(#clip0)" fill="#419900"><path d="M1.477 44.98h.053a1.5 1.5 0 001.5-1.449C3.84 20.35 23.29 2.216 46.472 3.027a41.999 41.999 0 0124.512 8.975h-7.983a1.5 1.5 0 000 3h12.02c.118-.01.234-.033.346-.07a1.59 1.59 0 00.226-.049c.042-.018.074-.055.114-.078.135-.066.259-.152.366-.256l.015-.01c.038-.053.073-.107.104-.164.079-.096.145-.201.196-.314.042-.12.067-.244.075-.37.018-.062.03-.125.038-.19V1.503a1.5 1.5 0 00-3 0v8.688C54.282-5.556 25.938-2.742 10.191 16.477A44.989 44.989 0 00.03 43.43a1.5 1.5 0 001.447 1.549zM13.62 72.914a1.503 1.503 0 00-2.25 1.993 45.716 45.716 0 003.268 3.312 1.5 1.5 0 002.024-2.214 42.291 42.291 0 01-3.042-3.091zM31.52 84.79c-1.37-.464-2.717-.999-4.033-1.603a1.5 1.5 0 10-1.254 2.724c1.41.65 2.855 1.224 4.326 1.722a1.5 1.5 0 00.962-2.842zM23.641 81.171v-.001a43.054 43.054 0 01-3.62-2.4 1.5 1.5 0 10-1.784 2.41 45.507 45.507 0 003.874 2.573 1.5 1.5 0 101.53-2.582zM10.904 69.528a42.562 42.562 0 01-2.352-3.649 1.502 1.502 0 10-2.603 1.5 45.4 45.4 0 002.52 3.901 1.5 1.5 0 002.435-1.752zM6.72 62.627a1.5 1.5 0 00-.129-.607l-.003-.01a41.881 41.881 0 01-1.552-4.05 1.5 1.5 0 10-2.85.925 45.086 45.086 0 001.662 4.35 1.5 1.5 0 002.872-.608zM2.76 55.54a1.5 1.5 0 001.155-1.778 42.512 42.512 0 01-.678-4.288 1.5 1.5 0 00-2.985.316c.164 1.543.408 3.076.73 4.593a1.5 1.5 0 001.777 1.157zM87.602 54.009H87.6a1.5 1.5 0 00-1.816 1.094 42.022 42.022 0 01-1.259 4.157 1.5 1.5 0 002.823 1.017c.526-1.46.977-2.946 1.35-4.452a1.5 1.5 0 00-1.096-1.816zM39.977 86.7a42.044 42.044 0 01-4.278-.735 1.5 1.5 0 00-.661 2.926c1.514.342 3.044.605 4.585.788a1.5 1.5 0 00.354-2.979zM84.835 62.564a1.5 1.5 0 00-2.002.698 41.758 41.758 0 01-2.091 3.805 1.5 1.5 0 002.55 1.58 44.942 44.942 0 002.24-4.079 1.5 1.5 0 00-.697-2.004zM80.404 70.365a1.5 1.5 0 00-2.134.275v-.003a41.992 41.992 0 01-2.828 3.3 1.5 1.5 0 002.176 2.068 45.888 45.888 0 003.026-3.532 1.5 1.5 0 00-.24-2.108zM88.525 45.072a1.477 1.477 0 00-1.552 1.445 42.022 42.022 0 01-.377 4.326 1.5 1.5 0 002.972.413c.213-1.537.348-3.083.403-4.633a1.5 1.5 0 00-1.446-1.551zM72.3 76.92v.005a42.492 42.492 0 01-3.45 2.652 1.503 1.503 0 001.71 2.473 46.02 46.02 0 003.69-2.85 1.5 1.5 0 10-1.95-2.28zM57.167 85.212a41.857 41.857 0 01-4.215 1.035 1.5 1.5 0 00.564 2.948 44.414 44.414 0 004.518-1.112 1.5 1.5 0 00-.867-2.87zM48.728 86.837a1.508 1.508 0 00-.082.007l.007.006c-1.2.102-2.428.15-3.652.15h-.686a1.552 1.552 0 00-1.528 1.473A1.5 1.5 0 0044.259 90h.742c1.31 0 2.625-.058 3.9-.168a1.5 1.5 0 10-.173-2.995zM65.159 81.854h.001a42.308 42.308 0 01-3.909 1.887 1.5 1.5 0 101.161 2.766 45.166 45.166 0 004.188-2.022 1.5 1.5 0 00-1.441-2.631z"/><path d="M45 13.502c-17.396 0-31.498 14.102-31.498 31.499s14.102 31.5 31.499 31.5C62.397 76.5 76.5 62.397 76.5 45c-.02-17.388-14.11-31.48-31.5-31.5zM69 46.5h4.424c-.78 14.534-12.39 26.144-26.923 26.923V69a1.5 1.5 0 00-3 0v4.424c-14.534-.78-26.144-12.389-26.923-26.923H21a1.5 1.5 0 000-3h-4.423c.78-14.534 12.389-26.144 26.923-26.923v4.424a1.5 1.5 0 003 0v-4.424c14.534.78 26.143 12.389 26.923 26.923H69a1.5 1.5 0 000 3z"/><path d="M46.5 40.777V27.001a1.5 1.5 0 00-3 0v13.776a4.5 4.5 0 00-2.723 2.724H33a1.5 1.5 0 000 3h7.776a4.49 4.49 0 105.724-5.724zM45 46.501a1.5 1.5 0 110-3 1.5 1.5 0 010 3z"/></g><defs><clipPath id="clip0"><path fill="#fff" d="M0 0h90v90H0z"/></clipPath></defs></svg>