<svg width="90" height="90" fill="none" xmlns="http://www.w3.org/2000/svg"><path d="M76.82 13.18C68.32 4.68 57.02 0 45 0S21.68 4.68 13.18 13.18 0 32.98 0 45s4.68 23.32 13.18 31.82S32.98 90 45 90s23.32-4.68 31.82-13.18S90 57.02 90 45s-4.68-23.32-13.18-31.82zM45 84.727C23.095 84.727 5.273 66.905 5.273 45 5.273 23.095 23.095 5.273 45 5.273c21.905 0 39.727 17.822 39.727 39.727 0 21.905-17.822 39.727-39.727 39.727z" fill="#419900"/><path d="M47.824 42.363h-5.648a5.842 5.842 0 01-5.836-5.835 5.843 5.843 0 015.836-5.836h11.297a2.637 2.637 0 000-5.274h-5.836v-5.836a2.637 2.637 0 00-5.274 0v5.836h-.187c-6.126 0-11.11 4.984-11.11 11.11 0 6.125 4.984 11.109 11.11 11.109h5.648a5.843 5.843 0 015.836 5.836 5.843 5.843 0 01-5.835 5.836H36.528a2.637 2.637 0 000 5.273h5.835v5.836a2.637 2.637 0 005.274 0v-5.836h.187c6.126 0 11.11-4.984 11.11-11.11 0-6.125-4.984-11.109-11.11-11.109z" fill="#419900"/></svg>