<svg width="184" height="32" fill="none" xmlns="http://www.w3.org/2000/svg"><g clip-path="url(#clip0)" fill="#fff"><path d="M20.042 19.075a.454.454 0 00-.038.64c.56.632.856 1.363.856 2.114 0 2.157-2.408 3.911-5.367 3.911-2.96 0-5.368-1.754-5.368-3.911s2.408-3.912 5.368-3.912c1.096 0 2.151.241 3.05.697a.454.454 0 00.412-.81c-1.027-.52-2.224-.795-3.462-.795-1.653 0-3.212.486-4.39 1.37-1.216.912-1.886 2.137-1.886 3.45 0 1.312.67 2.538 1.887 3.45 1.178.883 2.736 1.37 4.389 1.37 1.652 0 3.21-.487 4.388-1.37 1.217-.912 1.887-2.138 1.887-3.45 0-.977-.375-1.916-1.085-2.716a.454.454 0 00-.64-.038z"/><path d="M12.128 21.829c0 .785.639 1.424 1.424 1.424.786 0 1.425-.639 1.425-1.424 0-.786-.64-1.425-1.425-1.425s-1.424.64-1.424 1.425zm1.94 0a.517.517 0 11-1.033-.002.517.517 0 011.033.002zM11.58 14.067c0-.786-.638-1.424-1.424-1.424-.785 0-1.424.638-1.424 1.424 0 .785.639 1.424 1.424 1.424.786 0 1.425-.639 1.425-1.424zm-1.94 0a.517.517 0 111.033.001.517.517 0 01-1.033-.001zM17.433 20.404a1.426 1.426 0 000 2.849c.785 0 1.424-.639 1.424-1.424 0-.786-.639-1.425-1.424-1.425zm0 1.94a.517.517 0 11.001-1.033.517.517 0 010 1.034zM20.829 12.643c-.786 0-1.425.638-1.425 1.424 0 .785.64 1.424 1.425 1.424s1.424-.639 1.424-1.424c0-.786-.639-1.424-1.424-1.424zm0 1.94a.517.517 0 110-1.033.517.517 0 010 1.033z"/><path d="M30.984 3.043a2.141 2.141 0 00-.887-1.624 2.141 2.141 0 00-1.818-.347c-1.953.52-3.85 1.563-5.506 3.023a13.565 13.565 0 00-7.28-2.125c-2.619 0-5.123.738-7.277 2.115C6.563 2.63 4.67 1.59 2.72 1.072a2.141 2.141 0 00-1.818.347c-.53.387-.854.979-.887 1.624-.147 2.868.739 5.903 2.496 8.566a13.6 13.6 0 00-.571 3.913c0 3.62 1.41 7.023 3.969 9.583a13.463 13.463 0 009.582 3.97c3.62 0 7.024-1.41 9.583-3.97a13.463 13.463 0 003.97-9.583 13.57 13.57 0 00-.569-3.895c1.765-2.667 2.656-5.709 2.508-8.584zM28.513 1.95a1.237 1.237 0 011.05.204c.267.195.444.479.498.793-.135.009-.269.03-.402.066-1.734.461-3.443 1.346-4.963 2.565-.367-.34-.75-.657-1.15-.951 1.509-1.289 3.216-2.211 4.967-2.677zm-27.075.204c.308-.225.69-.3 1.05-.204 1.746.465 3.449 1.384 4.955 2.668-.397.294-.78.613-1.148.953-1.518-1.216-3.224-2.098-4.954-2.558a2.125 2.125 0 00-.402-.066c.054-.314.23-.598.499-.793zM.91 3.854c.066.007.132.018.198.036 1.577.42 3.137 1.22 4.536 2.323a13.501 13.501 0 00-2.75 4.298C1.637 8.4.947 6.088.91 3.854zm14.582 24.312c-6.971 0-12.643-5.672-12.643-12.644S8.52 2.88 15.492 2.88c3.592 0 7.027 1.535 9.424 4.213a.454.454 0 00.677-.605c-.081-.09-.163-.18-.246-.267 1.401-1.107 2.964-1.91 4.545-2.33.066-.018.132-.03.198-.036-.037 2.24-.731 4.561-1.995 6.676a13.505 13.505 0 00-1.334-2.538.454.454 0 00-.755.505 12.583 12.583 0 012.13 7.025c0 6.972-5.672 12.644-12.643 12.644z"/></g><path d="M37.081 8.501h2.013l6.785 6.372 6.97-6.372h1.942v14.036h-5.774v-4.553l-3.586 3.938-3.49-3.832v4.447h-4.86V8.501zm28.809 6.24c0-.515-.24-.773-.72-.773-.552.053-.91.337-1.073.852-.082.246-.14.534-.176.862-.03.322-.076.668-.14 1.037l1.924-.43.167-1.346.018-.202zm-1.187 4h-.483c-.152 0-.299-.007-.44-.018 0 .697.373 1.078 1.117 1.142.205.018.404.027.597.027.498 0 1.122-.115 1.872-.343a5.52 5.52 0 002.03-1.116l.546 2.733c-1.307 1.13-3.282 1.696-5.924 1.696-1.518 0-2.822-.442-3.911-1.327-1.184-.967-1.776-2.305-1.776-4.016 0-1.29.334-2.447 1.002-3.472.621-.938 1.462-1.65 2.523-2.136a8.145 8.145 0 013.436-.73c1.594 0 2.798.35 3.612 1.046.82.698 1.228 1.56 1.222 2.585 0 1.025-.49 1.936-1.468 2.733-.978.797-2.296 1.195-3.955 1.195zm9.904 2.83c-.469-.44-.844-.99-1.125-1.653a5.594 5.594 0 01-.413-2.153c0-.768.076-1.433.228-1.995.305-1.12.838-2.06 1.6-2.822A5.563 5.563 0 0176.11 12a5.652 5.652 0 012.891-.8c1.02 0 1.913.337 2.681 1.011.246.217.46.466.642.747l1.257-1.345h2.882v10.925h-2.882l-1.257-1.82c-.961 1.419-2.417 2.13-4.368 2.137-.54.005-1.117-.1-1.732-.317a4.544 4.544 0 01-1.617-.967zm7.119-6.645a1.474 1.474 0 00-.756-.185c-.293 0-.603.106-.931.317a3.647 3.647 0 00-.87.782c-.575.709-.862 1.43-.862 2.162 0 .516.158.879.475 1.09.293.193.738.167 1.336-.08a6.083 6.083 0 001.608-.975v-3.111zm16.9 6.82c-1.114.756-2.294 1.134-3.542 1.134-1.243 0-2.253-.352-3.033-1.055-.779-.709-1.169-1.66-1.169-2.856v-4.57H89.88v-2.787h1.002V8.66l5.256-.536v3.49h2.488v2.785h-2.488v2.76c0 .826.185 1.427.554 1.802.375.37 1.02.554 1.934.554v2.232zm18.119-13.245h5.476v14.036h-5.476v-5.185l-2.918.254v4.931h-5.467V8.501h5.467v5.071l2.918-.237V8.501zm16.996 6.223a1.022 1.022 0 00-.457-.088c-.181 0-.383.055-.606.167a2.932 2.932 0 00-.659.44 5.236 5.236 0 00-1.152 1.45c-.31.568-.465 1.092-.465 1.573 0 .474.181.794.544.958.129.058.288.087.475.087.188 0 .384-.055.589-.166.205-.118.41-.273.615-.466a6.109 6.109 0 001.125-1.468c.322-.58.484-1.099.484-1.556 0-.457-.164-.767-.493-.931zm-1.705 8.138c-1.675 0-3.12-.53-4.333-1.59-1.295-1.125-1.942-2.54-1.942-4.246 0-1.71.606-3.108 1.819-4.192 1.213-1.09 2.71-1.635 4.491-1.635 1.782 0 3.279.533 4.492 1.6 1.213 1.06 1.822 2.481 1.828 4.262.006 1.143-.284 2.154-.87 3.033a5.873 5.873 0 01-2.347 2.039 7.109 7.109 0 01-3.138.73zm15.081-6.16c0 1.921.465 2.882 1.397 2.882.469 0 .741-.229.817-.686.024-.14.036-.296.036-.465v-6.82h5.22v10.924h-2.883l-1.256-1.714c-.744 1.014-1.82 1.673-3.226 1.978-1.723.369-3.111.076-4.166-.88-.797-.72-1.195-1.672-1.195-2.856v-7.453h5.256v5.09zm19.457-1.811c-1.301-.305-2.247-.457-2.839-.457-.17 0-.302.038-.396.114-.087.076-.131.161-.131.255 0 .193.24.39.72.589.487.193.932.383 1.336.57.405.188.753.417 1.046.686.633.586.949 1.46.949 2.62 0 1.154-.419 2.042-1.256 2.663-.838.62-1.972.931-3.402.931-1.43 0-2.572-.131-3.428-.395-.375-.111-.662-.243-.861-.396v-3.26c.082.005.226.044.431.114s.545.181 1.019.334c.475.146.906.22 1.292.22.393 0 .589-.144.589-.431 0-.223-.176-.44-.527-.65a8.573 8.573 0 00-.536-.29c-.826-.405-1.418-.87-1.776-1.398-.351-.533-.527-1.157-.527-1.872 0-1.272.516-2.22 1.547-2.848.867-.527 2.001-.79 3.401-.79a15.248 15.248 0 013.349.377v3.314zm11.433-.15c0-.515-.241-.773-.721-.773-.551.053-.908.337-1.072.852a4.12 4.12 0 00-.176.862 12.43 12.43 0 01-.141 1.037l1.925-.43.167-1.346.018-.202zm-1.187 4h-.483c-.153 0-.299-.007-.44-.018 0 .697.372 1.078 1.116 1.142.206.018.405.027.598.027.498 0 1.122-.115 1.872-.343a5.513 5.513 0 002.03-1.116l.545 2.733c-1.306 1.13-3.281 1.696-5.923 1.696-1.518 0-2.822-.442-3.912-1.327-1.183-.967-1.775-2.305-1.775-4.016 0-1.29.334-2.447 1.002-3.472.621-.938 1.462-1.65 2.522-2.136a8.15 8.15 0 013.437-.73c1.594 0 2.798.35 3.612 1.046.821.698 1.228 1.56 1.222 2.585 0 1.025-.489 1.936-1.468 2.733-.978.797-2.297 1.195-3.955 1.195z" fill="#FFFBFB"/><defs><clipPath id="clip0"><path fill="#fff" d="M0 0h31v31H0z"/></clipPath></defs></svg>