<svg width="24" height="24" xmlns="http://www.w3.org/2000/svg"><path d="M23.571 19.045c0-.118 0-.235-.05-.352-.117-.352-.937-.72-1.272-.887-.954-.536-1.925-1.055-2.863-1.607-.435-.268-.97-.77-1.49-.77-1.021 0-2.511 3.03-3.415 3.03-.452 0-1.038-.419-1.44-.653-3.047-1.691-5.156-3.8-6.847-6.847-.234-.402-.653-.988-.653-1.44 0-.904 3.03-2.394 3.03-3.415 0-.52-.502-1.055-.77-1.49C7.25 3.676 6.73 2.705 6.194 1.75 6.027 1.416 5.658.596 5.307.48c-.117-.05-.234-.05-.352-.05-.602 0-1.774.267-2.327.519-.82.351-1.356 1.289-1.774 2.042C.318 3.978 0 4.982 0 6.104 0 7.66.636 9.067 1.155 10.49c.368 1.021.82 2.009 1.39 2.93 1.757 2.846 5.19 6.278 8.035 8.035.921.57 1.909 1.022 2.93 1.39 1.423.519 2.83 1.155 4.386 1.155 1.122 0 2.126-.318 3.114-.854.753-.418 1.69-.954 2.042-1.774.252-.553.52-1.725.52-2.327z"/></svg>