<svg width="40" height="40" xmlns="http://www.w3.org/2000/svg"><path d="M38.33 11.988a19.931 19.931 0 00-4.537-6.47.626.626 0 10-.864.906C36.681 10 38.747 14.82 38.747 20c0 10.337-8.41 18.747-18.747 18.747-10.338 0-18.747-8.41-18.747-18.747S9.663 1.253 20 1.253a18.65 18.65 0 0110.527 3.232.626.626 0 00.704-1.036A19.897 19.897 0 0020 0 19.869 19.869 0 005.858 5.858 19.869 19.869 0 000 20c0 5.342 2.08 10.365 5.858 14.142A19.869 19.869 0 0020 40c5.342 0 10.365-2.08 14.142-5.858A19.869 19.869 0 0040 20a19.86 19.86 0 00-1.67-8.012z"/><path d="M29.089 8.48l-12.045 5.608a.626.626 0 00.528 1.135l7.43-3.459-3.612 2.925-8.29 6.71-4.534-1.983 6.354-2.958a.626.626 0 00-.529-1.136l-6.839 3.184a1.013 1.013 0 00.022 1.843l5.062 2.215 1.483 8.896c.091.55.836.706 1.142.24l4.206-6.42 7.954 3.712c.637.298 1.395-.157 1.436-.856l1.121-19.051a.633.633 0 00-.89-.604zM14.845 28.199l-.969-5.815 9.873-7.992-7.556 8.472a.633.633 0 00-.142.272l-1.206 5.063zm1.33-.18l.916-3.846 1.229.573-2.144 3.273zm2.838-4.331l-1.325-.619 6.52-7.311-.942 1.44-4.253 6.49zm8.615 4.02l-7.468-3.485 8.43-12.866-.962 16.35z"/></svg>