<svg width="40" height="40" xmlns="http://www.w3.org/2000/svg"><path d="M23.81 0h-7.62C8.21 0 1.718 6.49 1.718 14.47v6.863a14.497 14.497 0 009.14 13.456v4.45a.76.76 0 001.274.564l4.417-4.001h7.26c7.98 0 14.473-6.49 14.473-14.47V14.47C38.282 6.491 31.788 0 23.809 0zm12.948 21.333c0 7.138-5.808 12.946-12.949 12.946h-7.554a.76.76 0 00-.511.197l-3.362 3.044v-3.259a.76.76 0 00-.508-.718 12.973 12.973 0 01-8.633-12.21v-6.864c0-7.138 5.81-12.946 12.95-12.946h7.618c7.14 0 12.949 5.808 12.949 12.946v6.864z"/><path d="M30.067 23.228l-4.682-3.041a2.281 2.281 0 00-3.161.67l-.22.338c-2.027-.669-4.26-1.524-5.598-5.396l.553-.482a2.289 2.289 0 00.224-3.224l-3.662-4.214a.763.763 0 00-1.075-.075l-2.3 1.999c-2.017 1.753-1.074 4.347-.764 5.2.013.038.03.074.05.11.08.143 1.99 3.551 5.074 6.693 3.096 3.154 8.687 6.067 8.858 6.151a3.813 3.813 0 005.268-1.12l1.66-2.554a.764.764 0 00-.225-1.055zm-2.713 2.78c-.686 1.057-2.104 1.357-3.224.635-.056-.03-5.61-2.922-8.537-5.904-2.736-2.787-4.553-5.884-4.8-6.315-.604-1.692-.497-2.732.353-3.47l1.725-1.5 3.163 3.638a.754.754 0 01-.073 1.075l-.935.812a.76.76 0 00-.228.799c1.593 5.178 4.692 6.195 6.954 6.938l.33.109a.76.76 0 00.88-.307l.54-.832a.754.754 0 011.053-.222L28.6 24.09l-1.245 1.918zM21.739 12.376a.762.762 0 10-.417 1.465 3.446 3.446 0 012.358 2.364.762.762 0 001.467-.412 4.98 4.98 0 00-3.408-3.417z"/><path d="M27.535 16.925a.762.762 0 00.734-.968 9.674 9.674 0 00-6.619-6.634.76.76 0 10-.416 1.466 8.139 8.139 0 015.569 5.582c.095.335.4.554.732.554z"/><path d="M21.322 5.776a.761.761 0 10-.418 1.466c4.54 1.29 8.156 4.915 9.437 9.457a.762.762 0 001.466-.413c-1.423-5.048-5.44-9.075-10.485-10.51z"/></svg>