<?xml version="1.0" encoding="utf-8"?><svg xmlns="http://www.w3.org/2000/svg" xmlns:xlink="http://www.w3.org/1999/xlink"><symbol viewBox="0 0 40 40" id="call" xmlns="http://www.w3.org/2000/svg"><g clip-path="url(#aclip0)"><path d="M38.95 30.858l-8.096-5.4a2.363 2.363 0 00-3.164.515l-2.358 3.032c-.303.4-.854.515-1.293.272l-.448-.248c-1.488-.81-3.338-1.82-7.066-5.549-3.728-3.73-4.74-5.581-5.55-7.065l-.246-.449a1.009 1.009 0 01.267-1.297l3.03-2.358a2.364 2.364 0 00.515-3.164l-5.4-8.096A2.35 2.35 0 005.973.338L2.587 2.37A4.776 4.776 0 00.41 5.198C-.81 9.64.107 17.306 11.4 28.6c8.984 8.983 15.671 11.398 20.268 11.398a11.808 11.808 0 003.133-.409 4.77 4.77 0 002.826-2.178l2.036-3.383a2.351 2.351 0 00-.713-3.17zm-.436 2.486l-2.03 3.386a3.445 3.445 0 01-2.034 1.575c-4.1 1.126-11.265.194-22.106-10.648C1.502 16.815.569 9.652 1.695 5.55a3.45 3.45 0 011.578-2.035l3.386-2.032a1.02 1.02 0 011.375.31l2.933 4.403 2.461 3.692a1.026 1.026 0 01-.222 1.373l-3.031 2.358a2.333 2.333 0 00-.618 2.994l.24.438c.852 1.562 1.912 3.506 5.778 7.372 3.867 3.866 5.81 4.925 7.372 5.777l.438.241a2.333 2.333 0 002.994-.618l2.358-3.03c.33-.421.927-.518 1.373-.223l8.095 5.399c.455.302.591.908.31 1.375zM22.665 6.67c6.256.007 11.325 5.076 11.332 11.332a.667.667 0 001.333 0c-.008-6.992-5.673-12.657-12.665-12.665a.666.666 0 100 1.333z"/><path d="M22.665 10.67a7.34 7.34 0 017.333 7.332.667.667 0 001.333 0 8.675 8.675 0 00-8.666-8.666.667.667 0 000 1.333z"/><path d="M22.665 14.669a3.337 3.337 0 013.333 3.333.667.667 0 001.333 0 4.671 4.671 0 00-4.666-4.666.667.667 0 000 1.333z"/></g><defs><clipPath id="aclip0"><path d="M0 0h40v40H0z"/></clipPath></defs></symbol><symbol fill="none" viewBox="0 0 90 90" id="clock" xmlns="http://www.w3.org/2000/svg"><g clip-path="url(#bclip0)" fill="#419900"><path d="M1.477 44.98h.053a1.5 1.5 0 001.5-1.449C3.84 20.35 23.29 2.216 46.472 3.027a41.999 41.999 0 0124.512 8.975h-7.983a1.5 1.5 0 000 3h12.02c.118-.01.234-.033.346-.07a1.59 1.59 0 00.226-.049c.042-.018.074-.055.114-.078.135-.066.259-.152.366-.256l.015-.01c.038-.053.073-.107.104-.164a1.4 1.4 0 00.196-.314c.042-.12.067-.244.075-.37.018-.062.03-.125.038-.19V1.503a1.5 1.5 0 00-3 0v8.688C54.282-5.556 25.938-2.742 10.191 16.477A44.989 44.989 0 00.03 43.43a1.5 1.5 0 001.447 1.549zM13.62 72.914a1.503 1.503 0 00-2.25 1.993 45.716 45.716 0 003.268 3.312 1.5 1.5 0 002.024-2.214 42.291 42.291 0 01-3.042-3.091zm17.9 11.876a41.87 41.87 0 01-4.033-1.603 1.5 1.5 0 10-1.254 2.724c1.41.65 2.855 1.224 4.326 1.722a1.5 1.5 0 00.962-2.842zm-7.879-3.619v-.001a43.054 43.054 0 01-3.62-2.4 1.5 1.5 0 10-1.784 2.41 45.507 45.507 0 003.874 2.573 1.5 1.5 0 101.53-2.582zM10.904 69.528a42.562 42.562 0 01-2.352-3.649 1.502 1.502 0 10-2.603 1.5 45.4 45.4 0 002.52 3.901 1.5 1.5 0 002.435-1.752zM6.72 62.627a1.5 1.5 0 00-.129-.607l-.003-.01a41.881 41.881 0 01-1.552-4.05 1.5 1.5 0 10-2.85.925 45.086 45.086 0 001.662 4.35 1.5 1.5 0 002.872-.608zM2.76 55.54a1.5 1.5 0 001.155-1.778 42.512 42.512 0 01-.678-4.288 1.5 1.5 0 00-2.985.316c.164 1.543.408 3.076.73 4.593a1.5 1.5 0 001.777 1.157zm84.842-1.531H87.6a1.5 1.5 0 00-1.816 1.094 42.022 42.022 0 01-1.259 4.157 1.5 1.5 0 002.823 1.017c.526-1.46.977-2.946 1.35-4.452a1.5 1.5 0 00-1.096-1.816zM39.977 86.7a42.044 42.044 0 01-4.278-.735 1.5 1.5 0 00-.661 2.926c1.514.342 3.044.605 4.585.788a1.5 1.5 0 00.354-2.979zm44.858-24.136a1.5 1.5 0 00-2.002.698 41.758 41.758 0 01-2.091 3.805 1.5 1.5 0 002.55 1.58 44.942 44.942 0 002.24-4.079 1.5 1.5 0 00-.697-2.004zm-4.431 7.801a1.5 1.5 0 00-2.134.275v-.003a41.992 41.992 0 01-2.828 3.3 1.5 1.5 0 002.176 2.068 45.888 45.888 0 003.026-3.532 1.5 1.5 0 00-.24-2.108zm8.121-25.293a1.477 1.477 0 00-1.552 1.445 42.022 42.022 0 01-.377 4.326 1.5 1.5 0 002.972.413c.213-1.537.348-3.083.403-4.633a1.5 1.5 0 00-1.446-1.551zM72.3 76.92v.005a42.492 42.492 0 01-3.45 2.652 1.503 1.503 0 001.71 2.473 46.02 46.02 0 003.69-2.85 1.5 1.5 0 10-1.95-2.28zm-15.133 8.292a41.857 41.857 0 01-4.215 1.035 1.5 1.5 0 00.564 2.948 44.414 44.414 0 004.518-1.112 1.5 1.5 0 00-.867-2.87zm-8.439 1.625a1.508 1.508 0 00-.082.007l.007.006c-1.2.102-2.428.15-3.652.15h-.686a1.552 1.552 0 00-1.528 1.473A1.5 1.5 0 0044.259 90h.742c1.31 0 2.625-.058 3.9-.168a1.5 1.5 0 10-.173-2.995zm16.431-4.983h.001a42.308 42.308 0 01-3.909 1.887 1.5 1.5 0 101.161 2.766 45.166 45.166 0 004.188-2.022 1.5 1.5 0 00-1.441-2.631z"/><path d="M45 13.502c-17.396 0-31.498 14.102-31.498 31.499s14.102 31.5 31.499 31.5C62.397 76.5 76.5 62.397 76.5 45 76.48 27.612 62.39 13.52 45 13.5zM69 46.5h4.424c-.78 14.534-12.39 26.144-26.923 26.923V69a1.5 1.5 0 00-3 0v4.424c-14.534-.78-26.144-12.389-26.923-26.923H21a1.5 1.5 0 000-3h-4.423c.78-14.534 12.389-26.144 26.923-26.923v4.424a1.5 1.5 0 003 0v-4.424c14.534.78 26.143 12.389 26.923 26.923H69a1.5 1.5 0 000 3z"/><path d="M46.5 40.777V27.001a1.5 1.5 0 00-3 0v13.776a4.5 4.5 0 00-2.723 2.724H33a1.5 1.5 0 000 3h7.776a4.49 4.49 0 105.724-5.724zM45 46.501a1.5 1.5 0 110-3 1.5 1.5 0 010 3z"/></g><defs><clipPath id="bclip0"><path fill="#fff" d="M0 0h90v90H0z"/></clipPath></defs></symbol><symbol fill="none" viewBox="0 0 90 90" id="coin" xmlns="http://www.w3.org/2000/svg"><path d="M76.82 13.18C68.32 4.68 57.02 0 45 0S21.68 4.68 13.18 13.18 0 32.98 0 45s4.68 23.32 13.18 31.82S32.98 90 45 90s23.32-4.68 31.82-13.18S90 57.02 90 45s-4.68-23.32-13.18-31.82zM45 84.727C23.095 84.727 5.273 66.905 5.273 45 5.273 23.095 23.095 5.273 45 5.273c21.905 0 39.727 17.822 39.727 39.727 0 21.905-17.822 39.727-39.727 39.727z" fill="#419900"/><path d="M47.824 42.363h-5.648a5.842 5.842 0 01-5.836-5.835 5.843 5.843 0 015.836-5.836h11.297a2.637 2.637 0 000-5.274h-5.836v-5.836a2.637 2.637 0 00-5.274 0v5.836h-.187c-6.126 0-11.11 4.984-11.11 11.11 0 6.125 4.984 11.109 11.11 11.109h5.648a5.843 5.843 0 015.836 5.836 5.843 5.843 0 01-5.835 5.836H36.528a2.637 2.637 0 000 5.273h5.835v5.836a2.637 2.637 0 005.274 0v-5.836h.187c6.126 0 11.11-4.984 11.11-11.11 0-6.125-4.984-11.109-11.11-11.109z" fill="#419900"/></symbol><symbol fill="none" viewBox="0 0 184 32" id="footer_logo" xmlns="http://www.w3.org/2000/svg"><g clip-path="url(#dclip0)" fill="#fff"><path d="M20.042 19.075a.454.454 0 00-.038.64c.56.632.856 1.363.856 2.114 0 2.157-2.408 3.911-5.367 3.911-2.96 0-5.368-1.754-5.368-3.911s2.408-3.912 5.368-3.912c1.096 0 2.151.241 3.05.697a.454.454 0 00.412-.81c-1.027-.52-2.224-.795-3.462-.795-1.653 0-3.212.486-4.39 1.37-1.216.912-1.886 2.137-1.886 3.45 0 1.312.67 2.538 1.887 3.45 1.178.883 2.736 1.37 4.389 1.37 1.652 0 3.21-.487 4.388-1.37 1.217-.912 1.887-2.138 1.887-3.45 0-.977-.375-1.916-1.085-2.716a.454.454 0 00-.64-.038z"/><path d="M12.128 21.829c0 .785.639 1.424 1.424 1.424.786 0 1.425-.639 1.425-1.424 0-.786-.64-1.425-1.425-1.425s-1.424.64-1.424 1.425zm1.94 0a.517.517 0 11-1.033-.002.517.517 0 011.033.002zm-2.488-7.762a1.425 1.425 0 10-2.851.001 1.425 1.425 0 002.852-.001zm-1.94 0a.517.517 0 111.033.001.517.517 0 01-1.033-.001zm7.793 6.337a1.426 1.426 0 000 2.849c.785 0 1.424-.639 1.424-1.424 0-.786-.639-1.425-1.424-1.425zm0 1.94a.517.517 0 11.001-1.033.517.517 0 010 1.034zm3.396-9.701c-.786 0-1.425.638-1.425 1.424 0 .785.64 1.424 1.425 1.424s1.424-.639 1.424-1.424c0-.786-.639-1.424-1.424-1.424zm0 1.94a.517.517 0 110-1.033.517.517 0 010 1.033z"/><path d="M30.984 3.043a2.141 2.141 0 00-.887-1.624 2.141 2.141 0 00-1.818-.347c-1.953.52-3.85 1.563-5.506 3.023a13.565 13.565 0 00-7.28-2.125c-2.619 0-5.123.738-7.277 2.115C6.563 2.63 4.67 1.59 2.72 1.072a2.141 2.141 0 00-1.818.347c-.53.387-.854.979-.887 1.624-.147 2.868.739 5.903 2.496 8.566a13.6 13.6 0 00-.571 3.913c0 3.62 1.41 7.023 3.969 9.583a13.463 13.463 0 009.582 3.97c3.62 0 7.024-1.41 9.583-3.97a13.463 13.463 0 003.97-9.583 13.57 13.57 0 00-.569-3.895c1.765-2.667 2.656-5.709 2.508-8.584zM28.513 1.95a1.237 1.237 0 011.05.204c.267.195.444.479.498.793-.135.009-.269.03-.402.066-1.734.461-3.443 1.346-4.963 2.565-.367-.34-.75-.657-1.15-.951 1.509-1.289 3.216-2.211 4.967-2.677zm-27.075.204c.308-.225.69-.3 1.05-.204 1.746.465 3.449 1.384 4.955 2.668-.397.294-.78.613-1.148.953-1.518-1.216-3.224-2.098-4.954-2.558a2.125 2.125 0 00-.402-.066c.054-.314.23-.598.499-.793zm-.528 1.7c.066.007.132.018.198.036 1.577.42 3.137 1.22 4.536 2.323a13.501 13.501 0 00-2.75 4.298C1.637 8.4.947 6.088.91 3.854zm14.582 24.312c-6.971 0-12.643-5.672-12.643-12.644S8.52 2.88 15.492 2.88c3.592 0 7.027 1.535 9.424 4.213a.454.454 0 00.677-.605 12.54 12.54 0 00-.246-.267c1.401-1.107 2.964-1.91 4.545-2.33.066-.018.132-.03.198-.036-.037 2.24-.731 4.561-1.995 6.676a13.505 13.505 0 00-1.334-2.538.454.454 0 00-.755.505 12.583 12.583 0 012.13 7.025c0 6.972-5.672 12.644-12.643 12.644z"/></g><path d="M37.081 8.501h2.013l6.785 6.372 6.97-6.372h1.942v14.036h-5.774v-4.553l-3.586 3.938-3.49-3.832v4.447h-4.86V8.501zm28.809 6.24c0-.515-.24-.773-.72-.773-.552.053-.91.337-1.073.852-.082.246-.14.534-.176.862-.03.322-.076.668-.14 1.037l1.924-.43.167-1.346.018-.202zm-1.187 4h-.483a5.65 5.65 0 01-.44-.018c0 .697.373 1.078 1.117 1.142.205.018.404.027.597.027.498 0 1.122-.115 1.872-.343a5.52 5.52 0 002.03-1.116l.546 2.733c-1.307 1.13-3.282 1.696-5.924 1.696-1.518 0-2.822-.442-3.911-1.327-1.184-.967-1.776-2.305-1.776-4.016 0-1.29.334-2.447 1.002-3.472.621-.938 1.462-1.65 2.523-2.136a8.145 8.145 0 013.436-.73c1.594 0 2.798.35 3.612 1.046.82.698 1.228 1.56 1.222 2.585 0 1.025-.49 1.936-1.468 2.733-.978.797-2.296 1.195-3.955 1.195zm9.904 2.83a4.793 4.793 0 01-1.125-1.653 5.594 5.594 0 01-.413-2.153c0-.768.076-1.433.228-1.995.305-1.12.838-2.06 1.6-2.822A5.563 5.563 0 0176.11 12a5.652 5.652 0 012.891-.8 3.938 3.938 0 013.323 1.758l1.257-1.345h2.882v10.925h-2.882l-1.257-1.82c-.961 1.419-2.417 2.13-4.368 2.137-.54.005-1.117-.1-1.732-.317a4.544 4.544 0 01-1.617-.967zm7.119-6.645a1.474 1.474 0 00-.756-.185c-.293 0-.603.106-.931.317a3.647 3.647 0 00-.87.782c-.575.709-.862 1.43-.862 2.162 0 .516.158.879.475 1.09.293.193.738.167 1.336-.08a6.083 6.083 0 001.608-.975v-3.111zm16.9 6.82c-1.114.756-2.294 1.134-3.542 1.134-1.243 0-2.253-.352-3.033-1.055-.779-.709-1.169-1.66-1.169-2.856v-4.57H89.88v-2.787h1.002V8.66l5.256-.536v3.49h2.488v2.785h-2.488v2.76c0 .826.185 1.427.554 1.802.375.37 1.02.554 1.934.554v2.232zm18.119-13.245h5.476v14.036h-5.476v-5.185l-2.918.254v4.931h-5.467V8.501h5.467v5.071l2.918-.237V8.501zm16.996 6.223a1.022 1.022 0 00-.457-.088 1.37 1.37 0 00-.606.167 2.932 2.932 0 00-.659.44 5.236 5.236 0 00-1.152 1.45c-.31.568-.465 1.092-.465 1.573 0 .474.181.794.544.958.129.058.288.087.475.087.188 0 .384-.055.589-.166.205-.118.41-.273.615-.466a6.109 6.109 0 001.125-1.468c.322-.58.484-1.099.484-1.556 0-.457-.164-.767-.493-.931zm-1.705 8.138c-1.675 0-3.12-.53-4.333-1.59-1.295-1.125-1.942-2.54-1.942-4.246 0-1.71.606-3.108 1.819-4.192 1.213-1.09 2.71-1.635 4.491-1.635 1.782 0 3.279.533 4.492 1.6 1.213 1.06 1.822 2.481 1.828 4.262.006 1.143-.284 2.154-.87 3.033a5.873 5.873 0 01-2.347 2.039 7.109 7.109 0 01-3.138.73zm15.081-6.16c0 1.921.465 2.882 1.397 2.882.469 0 .741-.229.817-.686a2.77 2.77 0 00.036-.465v-6.82h5.22v10.924h-2.883l-1.256-1.714c-.744 1.014-1.82 1.673-3.226 1.978-1.723.369-3.111.076-4.166-.88-.797-.72-1.195-1.672-1.195-2.856v-7.453h5.256v5.09zm19.457-1.811c-1.301-.305-2.247-.457-2.839-.457-.17 0-.302.038-.396.114-.087.076-.131.161-.131.255 0 .193.24.39.72.589.487.193.932.383 1.336.57a4.06 4.06 0 011.046.686c.633.586.949 1.46.949 2.62 0 1.154-.419 2.042-1.256 2.663-.838.62-1.972.931-3.402.931-1.43 0-2.572-.131-3.428-.395-.375-.111-.662-.243-.861-.396v-3.26c.082.005.226.044.431.114s.545.181 1.019.334c.475.146.906.22 1.292.22.393 0 .589-.144.589-.431 0-.223-.176-.44-.527-.65a8.573 8.573 0 00-.536-.29c-.826-.405-1.418-.87-1.776-1.398-.351-.533-.527-1.157-.527-1.872 0-1.272.516-2.22 1.547-2.848.867-.527 2.001-.79 3.401-.79a15.248 15.248 0 013.349.377v3.314zm11.433-.15c0-.515-.241-.773-.721-.773-.551.053-.908.337-1.072.852a4.12 4.12 0 00-.176.862 12.43 12.43 0 01-.141 1.037l1.925-.43.167-1.346.018-.202zm-1.187 4h-.483a5.63 5.63 0 01-.44-.018c0 .697.372 1.078 1.116 1.142.206.018.405.027.598.027.498 0 1.122-.115 1.872-.343a5.513 5.513 0 002.03-1.116l.545 2.733c-1.306 1.13-3.281 1.696-5.923 1.696-1.518 0-2.822-.442-3.912-1.327-1.183-.967-1.775-2.305-1.775-4.016 0-1.29.334-2.447 1.002-3.472.621-.938 1.462-1.65 2.522-2.136a8.15 8.15 0 013.437-.73c1.594 0 2.798.35 3.612 1.046.821.698 1.228 1.56 1.222 2.585 0 1.025-.489 1.936-1.468 2.733-.978.797-2.297 1.195-3.955 1.195z" fill="#FFFBFB"/><defs><clipPath id="dclip0"><path fill="#fff" d="M0 0h31v31H0z"/></clipPath></defs></symbol><symbol fill="none" viewBox="0 0 184 32" id="logo" xmlns="http://www.w3.org/2000/svg"><g clip-path="url(#eclip0)" fill="#fff"><path d="M20.042 19.537a.454.454 0 00-.038.642c.56.631.856 1.362.856 2.113 0 2.156-2.408 3.911-5.367 3.911-2.96 0-5.368-1.755-5.368-3.912 0-2.156 2.408-3.911 5.368-3.911 1.096 0 2.151.24 3.05.697a.454.454 0 00.412-.81c-1.027-.52-2.224-.796-3.462-.796-1.653 0-3.212.487-4.39 1.37-1.216.912-1.886 2.138-1.886 3.45 0 1.313.67 2.538 1.887 3.451 1.178.883 2.736 1.37 4.389 1.37 1.652 0 3.21-.487 4.388-1.37 1.217-.913 1.887-2.138 1.887-3.45 0-.977-.375-1.916-1.085-2.716a.454.454 0 00-.64-.039z"/><path d="M12.128 22.291c0 .786.639 1.425 1.424 1.425.786 0 1.425-.64 1.425-1.425s-.64-1.424-1.425-1.424-1.424.64-1.424 1.424zm1.94 0a.517.517 0 11-1.033 0 .517.517 0 011.033 0zM11.58 14.53a1.425 1.425 0 00-2.848 0c0 .785.639 1.424 1.424 1.424.786 0 1.425-.639 1.425-1.424zm-1.94 0a.517.517 0 111.033.001.517.517 0 01-1.033-.001zm7.793 6.337c-.785 0-1.424.64-1.424 1.424 0 .786.639 1.425 1.424 1.425.785 0 1.424-.64 1.424-1.425s-.639-1.424-1.424-1.424zm0 1.94a.517.517 0 11.001-1.033.517.517 0 010 1.034zm3.396-9.701c-.786 0-1.425.639-1.425 1.424 0 .785.64 1.424 1.425 1.424s1.424-.639 1.424-1.424c0-.785-.639-1.424-1.424-1.424zm0 1.94a.517.517 0 110-1.033.517.517 0 010 1.033z"/><path d="M30.984 3.506a2.141 2.141 0 00-.887-1.624 2.141 2.141 0 00-1.818-.348c-1.953.52-3.85 1.564-5.506 3.024a13.565 13.565 0 00-7.28-2.125c-2.619 0-5.123.738-7.277 2.115C6.563 3.093 4.67 2.053 2.72 1.534a2.141 2.141 0 00-1.818.348c-.53.387-.854.979-.887 1.624-.147 2.868.739 5.902 2.496 8.566a13.6 13.6 0 00-.571 3.913c0 3.62 1.41 7.023 3.969 9.583a13.463 13.463 0 009.582 3.969c3.62 0 7.024-1.41 9.583-3.97a13.463 13.463 0 003.97-9.582 13.57 13.57 0 00-.569-3.895c1.765-2.667 2.656-5.709 2.508-8.584zm-2.471-1.094a1.237 1.237 0 011.05.204c.267.195.444.478.498.793-.135.009-.269.03-.402.066-1.734.461-3.443 1.345-4.963 2.565-.367-.34-.75-.657-1.15-.951 1.509-1.29 3.216-2.211 4.967-2.677zm-27.075.204c.308-.225.69-.3 1.05-.204 1.746.465 3.449 1.384 4.955 2.668-.397.294-.78.613-1.148.953-1.518-1.216-3.224-2.098-4.954-2.558a2.125 2.125 0 00-.402-.066c.054-.315.23-.598.499-.793zM.91 4.317c.066.006.132.018.198.036 1.577.42 3.137 1.22 4.536 2.323a13.5 13.5 0 00-2.75 4.298C1.637 8.864.947 6.55.91 4.317zM15.492 28.63c-6.971 0-12.643-5.672-12.643-12.644S8.52 3.341 15.492 3.341c3.592 0 7.027 1.536 9.424 4.214a.454.454 0 00.677-.605 12.54 12.54 0 00-.246-.267c1.401-1.107 2.964-1.91 4.545-2.33.066-.018.132-.03.198-.036-.037 2.24-.731 4.561-1.995 6.676a13.503 13.503 0 00-1.334-2.539.454.454 0 00-.755.506 12.583 12.583 0 012.13 7.025c0 6.972-5.672 12.644-12.643 12.644z"/></g><path d="M37.081 8.964h2.013l6.785 6.372 6.97-6.372h1.942V23h-5.774v-4.553l-3.586 3.938-3.49-3.832V23h-4.86V8.964zm28.809 6.24c0-.516-.24-.773-.72-.773-.552.052-.91.337-1.073.852a4.18 4.18 0 00-.176.862c-.03.322-.076.668-.14 1.037l1.924-.431.167-1.345.018-.202zm-1.187 4h-.483a5.65 5.65 0 01-.44-.018c0 .697.373 1.078 1.117 1.142.205.018.404.027.597.027.498 0 1.122-.115 1.872-.343a5.52 5.52 0 002.03-1.117l.546 2.734c-1.307 1.13-3.282 1.696-5.924 1.696-1.518 0-2.822-.442-3.911-1.327-1.184-.967-1.776-2.306-1.776-4.017 0-1.289.334-2.446 1.002-3.471.621-.938 1.462-1.65 2.523-2.136a8.145 8.145 0 013.436-.73c1.594 0 2.798.35 3.612 1.046.82.698 1.228 1.559 1.222 2.584 0 1.026-.49 1.937-1.468 2.734-.978.797-2.296 1.195-3.955 1.195zm9.904 2.83c-.469-.44-.844-.991-1.125-1.653a5.594 5.594 0 01-.413-2.154c0-.767.076-1.432.228-1.995.305-1.119.838-2.06 1.6-2.82a5.563 5.563 0 011.213-.95 5.652 5.652 0 012.891-.8c1.02 0 1.913.337 2.681 1.01.246.218.46.467.642.748l1.257-1.345h2.882V23h-2.882l-1.257-1.82c-.961 1.419-2.417 2.13-4.368 2.136-.54.006-1.117-.1-1.732-.316a4.544 4.544 0 01-1.617-.967zm7.119-6.645a1.474 1.474 0 00-.756-.185c-.293 0-.603.106-.931.316a3.647 3.647 0 00-.87.783c-.575.709-.862 1.43-.862 2.162 0 .515.158.879.475 1.09.293.193.738.167 1.336-.08a6.083 6.083 0 001.608-.975v-3.111zm16.9 6.82c-1.114.756-2.294 1.134-3.542 1.134-1.243 0-2.253-.352-3.033-1.055-.779-.709-1.169-1.661-1.169-2.856v-4.57H89.88v-2.787h1.002V9.122l5.256-.536v3.49h2.488v2.785h-2.488v2.76c0 .826.185 1.427.554 1.802.375.369 1.02.554 1.934.554v2.232zm18.119-13.245h5.476V23h-5.476v-5.186l-2.918.255V23h-5.467V8.964h5.467v5.071l2.918-.237V8.964zm16.996 6.223a1.022 1.022 0 00-.457-.088 1.37 1.37 0 00-.606.167 2.932 2.932 0 00-.659.44 5.236 5.236 0 00-1.152 1.45c-.31.568-.465 1.092-.465 1.573 0 .474.181.794.544.957.129.06.288.088.475.088.188 0 .384-.055.589-.167.205-.117.41-.272.615-.465a6.11 6.11 0 001.125-1.468c.322-.58.484-1.099.484-1.556 0-.457-.164-.767-.493-.931zm-1.705 8.138c-1.675 0-3.12-.53-4.333-1.59-1.295-1.126-1.942-2.54-1.942-4.246 0-1.71.606-3.108 1.819-4.192 1.213-1.09 2.71-1.635 4.491-1.635 1.782 0 3.279.533 4.492 1.6 1.213 1.06 1.822 2.481 1.828 4.262.006 1.143-.284 2.154-.87 3.033a5.874 5.874 0 01-2.347 2.039 7.109 7.109 0 01-3.138.73zm15.081-6.16c0 1.92.465 2.882 1.397 2.882.469 0 .741-.229.817-.686.024-.14.036-.296.036-.466v-6.82h5.22V23h-2.883l-1.256-1.714c-.744 1.014-1.82 1.673-3.226 1.978-1.723.369-3.111.076-4.166-.88-.797-.72-1.195-1.672-1.195-2.856v-7.453h5.256v5.09zm19.457-1.811c-1.301-.305-2.247-.457-2.839-.457-.17 0-.302.038-.396.114-.087.076-.131.16-.131.255 0 .193.24.39.72.588.487.194.932.384 1.336.572a4.03 4.03 0 011.046.685c.633.586.949 1.46.949 2.62 0 1.154-.419 2.041-1.256 2.663-.838.62-1.972.931-3.402.931-1.43 0-2.572-.132-3.428-.395-.375-.112-.662-.244-.861-.396v-3.26c.082.005.226.043.431.114.205.07.545.181 1.019.334.475.146.906.22 1.292.22.393 0 .589-.144.589-.431 0-.223-.176-.44-.527-.65a8.573 8.573 0 00-.536-.29c-.826-.405-1.418-.87-1.776-1.398-.351-.533-.527-1.157-.527-1.872 0-1.272.516-2.22 1.547-2.848.867-.527 2.001-.79 3.401-.79a15.256 15.256 0 013.349.377v3.314zm11.433-.15c0-.516-.241-.773-.721-.773-.551.052-.908.337-1.072.852a4.12 4.12 0 00-.176.862c-.029.322-.076.668-.141 1.037l1.925-.431.167-1.345.018-.202zm-1.187 4h-.483a5.63 5.63 0 01-.44-.018c0 .697.372 1.078 1.116 1.142.206.018.405.027.598.027.498 0 1.122-.115 1.872-.343a5.513 5.513 0 002.03-1.117l.545 2.734c-1.306 1.13-3.281 1.696-5.923 1.696-1.518 0-2.822-.442-3.912-1.327-1.183-.967-1.775-2.306-1.775-4.017 0-1.289.334-2.446 1.002-3.471.621-.938 1.462-1.65 2.522-2.136a8.15 8.15 0 013.437-.73c1.594 0 2.798.35 3.612 1.046.821.698 1.228 1.559 1.222 2.584 0 1.026-.489 1.937-1.468 2.734-.978.797-2.297 1.195-3.955 1.195z" fill="#FFFBFB"/><defs><clipPath id="eclip0"><path fill="#fff" d="M0 0h31v31H0z"/></clipPath></defs></symbol><symbol viewBox="0 0 24 24" id="phone" xmlns="http://www.w3.org/2000/svg"><path d="M23.571 19.045c0-.118 0-.235-.05-.352-.117-.352-.937-.72-1.272-.887-.954-.536-1.925-1.055-2.863-1.607-.435-.268-.97-.77-1.49-.77-1.021 0-2.511 3.03-3.415 3.03-.452 0-1.038-.419-1.44-.653-3.047-1.691-5.156-3.8-6.847-6.847-.234-.402-.653-.988-.653-1.44 0-.904 3.03-2.394 3.03-3.415 0-.52-.502-1.055-.77-1.49C7.25 3.676 6.73 2.705 6.194 1.75 6.027 1.416 5.658.596 5.307.48 5.19.43 5.073.43 4.955.43c-.602 0-1.774.267-2.327.519-.82.351-1.356 1.289-1.774 2.042C.318 3.978 0 4.982 0 6.104 0 7.66.636 9.067 1.155 10.49c.368 1.021.82 2.009 1.39 2.93 1.757 2.846 5.19 6.278 8.035 8.035.921.57 1.909 1.022 2.93 1.39 1.423.519 2.83 1.155 4.386 1.155 1.122 0 2.126-.318 3.114-.854.753-.418 1.69-.954 2.042-1.774.252-.553.52-1.725.52-2.327z"/></symbol><symbol viewBox="0 0 40 40" id="telegram" xmlns="http://www.w3.org/2000/svg"><path d="M38.33 11.988a19.931 19.931 0 00-4.537-6.47.626.626 0 10-.864.906C36.681 10 38.747 14.82 38.747 20c0 10.337-8.41 18.747-18.747 18.747-10.338 0-18.747-8.41-18.747-18.747S9.663 1.253 20 1.253a18.65 18.65 0 0110.527 3.232.626.626 0 00.704-1.036A19.897 19.897 0 0020 0 19.869 19.869 0 005.858 5.858 19.869 19.869 0 000 20c0 5.342 2.08 10.365 5.858 14.142A19.869 19.869 0 0020 40c5.342 0 10.365-2.08 14.142-5.858A19.869 19.869 0 0040 20a19.86 19.86 0 00-1.67-8.012z"/><path d="M29.089 8.48l-12.045 5.608a.626.626 0 00.528 1.135l7.43-3.459-3.612 2.925-8.29 6.71-4.534-1.983 6.354-2.958a.626.626 0 00-.529-1.136l-6.839 3.184a1.013 1.013 0 00.022 1.843l5.062 2.215 1.483 8.896c.091.55.836.706 1.142.24l4.206-6.42 7.954 3.712c.637.298 1.395-.157 1.436-.856l1.121-19.051a.633.633 0 00-.89-.604zM14.845 28.199l-.969-5.815 9.873-7.992-7.556 8.472a.633.633 0 00-.142.272l-1.206 5.063zm1.33-.18l.916-3.846 1.229.573-2.144 3.273zm2.838-4.331l-1.325-.619 6.52-7.311-.942 1.44-4.253 6.49zm8.615 4.02l-7.468-3.485 8.43-12.866-.962 16.35z"/></symbol><symbol viewBox="0 0 40 40" id="viber" xmlns="http://www.w3.org/2000/svg"><path d="M23.81 0h-7.62C8.21 0 1.718 6.49 1.718 14.47v6.863a14.497 14.497 0 009.14 13.456v4.45a.76.76 0 001.274.564l4.417-4.001h7.26c7.98 0 14.473-6.49 14.473-14.47V14.47C38.282 6.491 31.788 0 23.809 0zm12.948 21.333c0 7.138-5.808 12.946-12.949 12.946h-7.554a.76.76 0 00-.511.197l-3.362 3.044v-3.259a.76.76 0 00-.508-.718 12.973 12.973 0 01-8.633-12.21v-6.864c0-7.138 5.81-12.946 12.95-12.946h7.618c7.14 0 12.949 5.808 12.949 12.946v6.864z"/><path d="M30.067 23.228l-4.682-3.041a2.281 2.281 0 00-3.161.67l-.22.338c-2.027-.669-4.26-1.524-5.598-5.396l.553-.482a2.289 2.289 0 00.224-3.224l-3.662-4.214a.763.763 0 00-1.075-.075l-2.3 1.999c-2.017 1.753-1.074 4.347-.764 5.2.013.038.03.074.05.11.08.143 1.99 3.551 5.074 6.693 3.096 3.154 8.687 6.067 8.858 6.151a3.813 3.813 0 005.268-1.12l1.66-2.554a.764.764 0 00-.225-1.055zm-2.713 2.78c-.686 1.057-2.104 1.357-3.224.635-.056-.03-5.61-2.922-8.537-5.904-2.736-2.787-4.553-5.884-4.8-6.315-.604-1.692-.497-2.732.353-3.47l1.725-1.5 3.163 3.638a.754.754 0 01-.073 1.075l-.935.812a.76.76 0 00-.228.799c1.593 5.178 4.692 6.195 6.954 6.938l.33.109a.76.76 0 00.88-.307l.54-.832a.754.754 0 011.053-.222L28.6 24.09l-1.245 1.918zm-5.615-13.632a.762.762 0 10-.417 1.465 3.446 3.446 0 012.358 2.364.762.762 0 001.467-.412 4.98 4.98 0 00-3.408-3.417z"/><path d="M27.535 16.925a.762.762 0 00.734-.968 9.674 9.674 0 00-6.619-6.634.76.76 0 10-.416 1.466 8.139 8.139 0 015.569 5.582c.095.335.4.554.732.554z"/><path d="M21.322 5.776a.761.761 0 10-.418 1.466c4.54 1.29 8.156 4.915 9.437 9.457a.762.762 0 001.466-.413c-1.423-5.048-5.44-9.075-10.485-10.51z"/></symbol><symbol fill="none" viewBox="0 0 90 90" id="winner" xmlns="http://www.w3.org/2000/svg"><g clip-path="url(#iclip0)" fill="#419900"><path d="M53.267 10.824a1.757 1.757 0 10-.824 3.418C66.69 17.676 76.64 30.325 76.64 45c0 17.446-14.194 31.64-31.64 31.64-17.448 0-31.64-14.194-31.64-31.64 0-14.675 9.95-27.323 24.196-30.758a1.758 1.758 0 00-.824-3.418C29.195 12.642 22.366 17 17.504 23.093c-5.011 6.28-7.66 13.856-7.66 21.907 0 19.385 15.771 35.156 35.156 35.156 19.385 0 35.156-15.77 35.156-35.156 0-8.051-2.648-15.627-7.66-21.907-4.862-6.095-11.691-10.452-19.23-12.269z"/><path d="M88.94 40.772l-2.056-3.837.343-4.743a8.972 8.972 0 00-3.248-7.942l-3.414-2.796-1.343-4.045a9.035 9.035 0 00-6.148-6.5L68.86 9.638l-3.227-3.73a8.996 8.996 0 00-7.731-3.126l-4.374.435L49.23 1.06a8.968 8.968 0 00-8.458 0l-3.836 2.056-4.743-.343a8.971 8.971 0 00-7.943 3.248l-2.795 3.414-4.045 1.342a9.035 9.035 0 00-6.5 6.149L9.637 21.14l-3.73 3.227a8.995 8.995 0 00-3.127 7.73l.436 4.374-2.157 4.3a8.968 8.968 0 000 8.457l2.056 3.837-.343 4.743a8.973 8.973 0 003.249 7.943l3.413 2.795 1.343 4.045a9.034 9.034 0 006.149 6.5l4.213 1.272 3.227 3.73a8.994 8.994 0 007.731 3.126l4.374-.435 4.298 2.156a8.975 8.975 0 008.458 0l3.837-2.055 4.743.343a8.975 8.975 0 007.943-3.249l2.795-3.413 4.046-1.343a9.035 9.035 0 006.499-6.149l1.273-4.213 3.73-3.227a8.995 8.995 0 003.126-7.731l-.436-4.374 2.157-4.299a8.969 8.969 0 000-8.458zm-3.11 6.818a1.783 1.783 0 00-.023.043l-2.395 4.775a1.76 1.76 0 00-.178.963l.487 4.878a5.484 5.484 0 01-1.917 4.716l-4.127 3.57a1.756 1.756 0 00-.532.821l-1.42 4.702a5.51 5.51 0 01-4.015 3.76 1.756 1.756 0 00-.155.044l-4.6 1.527a1.759 1.759 0 00-.807.555l-3.118 3.808a5.472 5.472 0 01-4.936 1.971l-5.284-.382a1.757 1.757 0 00-.957.204l-4.283 2.296a5.458 5.458 0 01-5.203-.033l-4.775-2.395a1.758 1.758 0 00-.963-.178l-4.878.486a5.483 5.483 0 01-4.716-1.916l-3.57-4.127a1.755 1.755 0 00-.822-.533l-4.701-1.42a5.51 5.51 0 01-3.761-4.014 1.764 1.764 0 00-.043-.155l-1.528-4.601a1.755 1.755 0 00-.554-.806L8.248 63.03a5.471 5.471 0 01-1.971-4.935l.382-5.285a1.757 1.757 0 00-.204-.957l-2.296-4.282a5.459 5.459 0 01.032-5.204l2.396-4.775c.149-.297.21-.631.178-.962l-.487-4.878a5.485 5.485 0 011.917-4.717l4.127-3.57c.252-.218.436-.503.532-.821l1.42-4.702a5.51 5.51 0 014.015-3.76 2.1 2.1 0 00.155-.044l4.6-1.527c.316-.105.596-.297.807-.555l3.118-3.808a5.473 5.473 0 014.936-1.971l5.284.382a1.77 1.77 0 00.957-.204L42.43 4.16a5.458 5.458 0 015.203.032l4.775 2.395c.298.15.631.211.963.178l4.878-.486a5.484 5.484 0 014.716 1.916l3.57 4.127c.218.252.503.437.822.533l4.7 1.42a5.51 5.51 0 013.762 4.015c.012.052.026.103.043.154l1.528 4.601c.105.316.297.595.554.806l3.809 3.119a5.47 5.47 0 011.97 4.935l-.381 5.285a1.76 1.76 0 00.203.957l2.296 4.282a5.458 5.458 0 01-.01 5.16z"/><path d="M37.371 35.423a1.756 1.756 0 00-1.587-1.006h-9.287c-.971 0-1.758.787-1.758 1.758v26.607c0 .97.787 1.758 1.758 1.758h9.287c.729 0 1.354-.444 1.62-1.075 1.34.188 2.72.569 4.158.967 2.16.598 4.395 1.217 6.716 1.217h10.147c3.137 0 5.68-1.663 6.8-4.45.546-1.357.642-2.765.323-3.945a6.342 6.342 0 001.45-1.94c.756-1.546.907-3.284.478-4.748.799-.771 1.395-1.79 1.706-2.992.291-1.123.286-2.231.027-3.191 1.586-.933 2.654-2.628 2.654-4.537 0-1.497-.583-2.877-1.642-3.885a5.496 5.496 0 00-3.813-1.501H52.104c-1.086-1.363-1.425-3.213-.806-4.702 1.27-3.056 1.191-5.643-.255-8.388-1.073-2.037-3.959-4.065-6.384-3.719-1.467.21-2.527 1.246-2.839 2.773-.091.449-.116.934-.145 1.496-.072 1.385-.17 3.283-1.367 5.575-.81 1.554-1.081 3.152-1.32 4.562-.342 2.02-.508 2.993-1.617 3.366zm-9.117 2.51h5.772v23.09h-5.772v-23.09zm14.2-5.29c.205-1.209.417-2.46.97-3.52 1.552-2.972 1.683-5.507 1.762-7.021.02-.404.04-.785.08-.977a.02.02 0 010-.003c.61.008 2.11.831 2.667 1.887.963 1.828.995 3.291.119 5.4-.79 1.902-.73 4.109.05 6.07a1.757 1.757 0 00.244 3.497h18.062c.535 0 1.029.188 1.389.531.25.24.55.666.55 1.34 0 .942-.864 1.757-1.887 1.78l-4.525.098a1.758 1.758 0 00.038 3.515h.039l3.768-.082c.123.348.187 1.013-.072 1.774-.22.647-.811 1.732-2.299 1.732a1.758 1.758 0 000 3.516c.267 0 .529-.017.784-.049.022.497-.08 1.08-.353 1.638-.323.66-.96 1.446-2.167 1.446a1.758 1.758 0 000 3.516c.182 0 .362-.008.54-.024a3.315 3.315 0 01-.265 1.22c-.276.663-1.171 2.206-3.522 2.206H48.278c-1.843 0-3.754-.529-5.778-1.09-1.61-.445-3.26-.902-4.958-1.106V38.98c3.958-.717 4.504-3.92 4.913-6.336zM45 13.36a1.758 1.758 0 000-3.516 1.757 1.757 0 100 3.516z"/></g><defs><clipPath id="iclip0"><path fill="#fff" d="M0 0h90v90H0z"/></clipPath></defs></symbol></svg>